<svg width="800" height="800" viewBox="0 0 800 800" fill="none" xmlns="http://www.w3.org/2000/svg">
<g clip-path="url(#clip0_44_415)">
<path d="M400 800C179.439 800 0 620.561 0 400C0 179.439 179.439 0 400 0C620.561 0 800 179.439 800 400C800 620.561 620.561 800 400 800Z" fill="#F24B16"/>
<g opacity="0.5">
<path d="M400.002 738.489C213.358 738.489 61.5127 586.644 61.5127 400C61.5127 213.356 213.356 61.5107 400.002 61.5107C586.646 61.5107 738.491 213.354 738.491 400C738.491 586.645 586.646 738.489 400.002 738.489ZM400.002 147.819C260.949 147.819 147.821 260.947 147.821 400C147.821 539.053 260.949 652.181 400.002 652.181C539.055 652.181 652.183 539.053 652.183 400C652.183 260.947 539.053 147.819 400.002 147.819Z" fill="#F7F3E7"/>
</g>
<path d="M103.067 414.937C111.317 414.937 118.005 408.25 118.005 400C118.005 391.75 111.317 385.062 103.067 385.062C94.8176 385.062 88.1299 391.75 88.1299 400C88.1299 408.25 94.8176 414.937 103.067 414.937Z" fill="#F24B16"/>
<path d="M693.939 414.937C702.189 414.937 708.877 408.25 708.877 400C708.877 391.75 702.189 385.062 693.939 385.062C685.69 385.062 679.002 391.75 679.002 400C679.002 408.25 685.69 414.937 693.939 414.937Z" fill="#F24B16"/>
<path opacity="0.06" d="M400.188 799.623C502.619 799.623 605.052 760.636 683.031 682.656C838.991 526.697 838.991 272.93 683.031 116.972C605.05 38.9891 502.619 0 400.188 0V799.623Z" fill="#040000"/>
<path d="M474.568 580.956C469.815 587.161 460.468 587.161 455.715 580.956L398.305 505.995L531.978 505.995L474.568 580.956Z" fill="#F7F3E7"/>
<path d="M215.804 279.808C215.804 259.48 199.325 243 178.997 243C158.669 243 142.189 259.48 142.189 279.808H178.997H215.804ZM253.735 481.278L259.332 444.899L253.735 481.278ZM325.08 453.725L298.783 427.972L325.08 453.725ZM583.711 412.767L571.845 377.925L583.711 412.767ZM466.33 507.774H503.137V437.722H466.33H429.523V507.774H466.33ZM487.702 416.35V453.157H562.108V416.35V379.543H487.702V416.35ZM563.041 309.491V272.684H496.275V309.491V346.298H563.041V309.491ZM445.378 330.886L419.08 305.133L298.783 427.972L325.08 453.725L351.377 479.478L471.675 356.639L445.378 330.886ZM253.735 481.278L259.332 444.899L256.696 444.493L251.099 480.873L245.502 517.252L248.138 517.657L253.735 481.278ZM178.997 396.829H215.804V279.808H178.997H142.189V396.829H178.997ZM251.099 480.873L256.696 444.493C233.17 440.874 215.804 420.632 215.804 396.829H178.997H142.189C142.189 456.966 186.065 508.108 245.502 517.252L251.099 480.873ZM258.639 481.653V444.846C258.871 444.846 259.103 444.864 259.332 444.899L253.735 481.278L248.138 517.657C251.613 518.192 255.124 518.46 258.639 518.46V481.653ZM325.08 453.725L298.783 427.972C288.214 438.764 273.745 444.846 258.639 444.846V481.653V518.46C293.535 518.46 326.961 504.41 351.377 479.478L325.08 453.725ZM496.275 309.491V272.684C467.228 272.684 439.404 284.379 419.08 305.133L445.378 330.886L471.675 356.639C478.152 350.025 487.018 346.298 496.275 346.298V309.491ZM582.878 312.51L593.828 277.369C583.861 274.263 573.481 272.684 563.041 272.684V309.491V346.298C566.055 346.298 569.051 346.754 571.928 347.651L582.878 312.51ZM583.711 412.767L595.578 447.609C676.665 419.992 677.33 303.388 593.828 277.369L582.878 312.51L571.928 347.651C585.702 351.942 587.205 372.693 571.845 377.925L583.711 412.767ZM562.108 416.35V453.157C573.501 453.157 584.829 451.269 595.578 447.609L583.711 412.767L571.845 377.925C568.702 378.995 565.39 379.543 562.108 379.543V416.35ZM466.33 437.722H503.137C503.137 446.247 496.226 453.157 487.702 453.157V416.35V379.543C455.57 379.543 429.523 405.591 429.523 437.722H466.33Z" fill="#F7F3E7"/>
<path d="M379.654 377.169H348.217L379.654 345.053V377.169ZM342.847 243C363.174 243 379.654 259.48 379.654 279.808V297.526L306.039 372.729V279.808C306.039 259.48 322.519 243 342.847 243Z" fill="#F7F3E7"/>
</g>
<defs>
<clipPath id="clip0_44_415">
<rect width="800" height="800" fill="white"/>
</clipPath>
</defs>
</svg>
