<svg width="84" height="16" viewBox="0 0 84 16" fill="none" xmlns="http://www.w3.org/2000/svg">
<path d="M53.511 5.54123C54.1347 5.54123 54.6404 6.04686 54.6404 6.67059C54.6404 7.29431 54.1347 7.79994 53.511 7.79994H46.969V5.54123H53.511ZM49.1589 6.67059L48.5116 10.6646L47.2582 9.27361H53.8415C54.5489 9.27361 55.1224 9.84707 55.1224 10.5545C55.1224 11.2619 54.5489 11.8353 53.8415 11.8353H45.3301L46.1013 6.67059L45.3301 1.50586H53.7727C54.4801 1.50586 55.0535 2.07932 55.0535 2.78671C55.0535 3.49411 54.4801 4.06757 53.7727 4.06757H47.2582L48.5116 2.67653L49.1589 6.67059Z" fill="#97EA28"/>
<path d="M38.1928 10.3754H36.8569L40.5455 1.83063C40.6306 1.63351 40.8247 1.50586 41.0394 1.50586H43.2076C43.5996 1.50586 43.86 1.91177 43.6966 2.26814L39.3084 11.8353H35.6587L31.2705 2.26814C31.1071 1.91177 31.3675 1.50586 31.7595 1.50586H33.997C34.2115 1.50586 34.4054 1.63321 34.4907 1.82999L38.1928 10.3754Z" fill="#97EA28"/>
<path d="M26.1514 4.71487C26.1514 2.94258 27.5881 1.50586 29.3604 1.50586V11.8353H26.1514V4.71487Z" fill="#97EA28"/>
<path d="M15.7906 5.96819H19.3991C19.8031 5.96819 20.1152 5.87637 20.3356 5.69273C20.5651 5.5091 20.6799 5.24283 20.6799 4.89392C20.6799 4.54502 20.5651 4.27874 20.3356 4.09511C20.1152 3.91148 19.8031 3.81966 19.3991 3.81966H15.3361L16.7823 2.33222V11.8353H13.5732V1.50586H19.8811C20.6799 1.50586 21.3823 1.64818 21.9883 1.93281C22.5943 2.21744 23.0672 2.61226 23.4069 3.11726C23.7466 3.62225 23.9165 4.21447 23.9165 4.89392C23.9165 5.55501 23.7466 6.14264 23.4069 6.65682C23.0672 7.16181 22.5943 7.55663 21.9883 7.84126C21.3823 8.11671 20.6799 8.25444 19.8811 8.25444H15.7906V5.96819ZM17.1679 7.00113H20.735L24.2883 11.8353H20.611L17.1679 7.00113Z" fill="#97EA28"/>
<path d="M5.31623 1.50586C6.55576 1.50586 7.63921 1.72163 8.56656 2.15317C9.5031 2.57553 10.2285 3.17235 10.7426 3.94361C11.266 4.71488 11.5277 5.62387 11.5277 6.67059C11.5277 7.70813 11.266 8.61712 10.7426 9.39757C10.2285 10.1688 9.5031 10.7702 8.56656 11.2018C7.63921 11.6241 6.55576 11.8353 5.31623 11.8353H0.537993C0.240868 11.8353 0 11.5944 0 11.2973V2.04385C0 1.74673 0.240867 1.50586 0.537993 1.50586H5.31623ZM3.18147 10.4443L1.7078 8.98439H5.56413C6.12422 8.98439 6.60626 8.89257 7.01026 8.70894C7.42344 8.51612 7.74021 8.24526 7.96057 7.89635C8.18093 7.54744 8.29111 7.13886 8.29111 6.67059C8.29111 6.19314 8.18093 5.78455 7.96057 5.44483C7.74021 5.09592 7.42344 4.82965 7.01026 4.64601C6.60626 4.4532 6.12422 4.35679 5.56413 4.35679H1.7078L3.18147 2.89689V10.4443Z" fill="#97EA28"/>
<path d="M75.7659 15.3124C75.5505 15.5936 75.127 15.5936 74.9116 15.3124L72.3103 11.9159L78.3672 11.9159L75.7659 15.3124Z" fill="#97EA28"/>
<path d="M64.0398 1.66797C64.0398 0.746881 63.2932 0.000191689 62.3721 0.000191689C61.451 0.000191689 60.7043 0.746881 60.7043 1.66797H62.3721H64.0398ZM65.7586 10.7968L65.505 12.4452L65.7586 10.7968ZM74.4421 3.98238L73.2506 2.81547L74.4421 3.98238ZM80.6724 3.14974L81.1686 1.55747L80.6724 3.14974ZM80.7102 7.69251L80.1725 6.11378L80.7102 7.69251ZM75.3915 11.9974H77.0593V8.82327H75.3915H73.7237V11.9974H75.3915ZM76.3599 7.85488V9.52266H79.7313V7.85488V6.18711H76.3599V7.85488ZM79.7736 3.01295V1.34517H76.7484V3.01295V4.68073H79.7736V3.01295ZM74.4421 3.98238L73.2506 2.81547L67.7997 8.38148L68.9913 9.54838L70.1828 10.7153L75.6337 5.14928L74.4421 3.98238ZM65.7586 10.7968L66.0122 9.14847L65.8927 9.13009L65.6391 10.7785L65.3855 12.4269L65.505 12.4452L65.7586 10.7968ZM62.3721 6.97037H64.0398V1.66797H62.3721H60.7043V6.97037H62.3721ZM65.6391 10.7785L65.8927 9.13009C64.8267 8.96609 64.0398 8.04889 64.0398 6.97037H62.3721H60.7043C60.7043 9.69522 62.6924 12.0125 65.3855 12.4269L65.6391 10.7785ZM65.9808 10.8138V9.14607C65.9913 9.14607 66.0018 9.14687 66.0122 9.14847L65.7586 10.7968L65.505 12.4452C65.6624 12.4695 65.8215 12.4816 65.9808 12.4816V10.8138ZM68.9913 9.54838L67.7997 8.38148C67.3208 8.87048 66.6652 9.14607 65.9808 9.14607V10.8138V12.4816C67.5619 12.4816 69.0765 11.845 70.1828 10.7153L68.9913 9.54838ZM76.7484 3.01295V1.34517C75.4322 1.34517 74.1715 1.87512 73.2506 2.81547L74.4421 3.98238L75.6337 5.14928C75.9271 4.84961 76.3289 4.68073 76.7484 4.68073V3.01295ZM80.6724 3.14974L81.1686 1.55747C80.717 1.41675 80.2466 1.34517 79.7736 1.34517V3.01295V4.68073C79.9101 4.68073 80.0459 4.70139 80.1763 4.74201L80.6724 3.14974ZM80.7102 7.69251L81.2479 9.27123C84.9221 8.01988 84.9522 2.73642 81.1686 1.55747L80.6724 3.14974L80.1763 4.74201C80.8004 4.93647 80.8685 5.87674 80.1725 6.11378L80.7102 7.69251ZM79.7313 7.85488V9.52266C80.2476 9.52266 80.7609 9.4371 81.2479 9.27123L80.7102 7.69251L80.1725 6.11378C80.0301 6.16228 79.88 6.18711 79.7313 6.18711V7.85488ZM75.3915 8.82327H77.0593C77.0593 9.20953 76.7461 9.52266 76.3599 9.52266V7.85488V6.18711C74.904 6.18711 73.7237 7.36736 73.7237 8.82327H75.3915Z" fill="#97EA28"/>
<path d="M71.4648 6.0791H70.04L71.4648 4.62402V6.0791ZM69.7969 0C70.718 0 71.4648 0.746881 71.4648 1.66797V2.4707L68.1289 5.87793V1.66797C68.1289 0.746881 68.8758 0 69.7969 0Z" fill="#97EA28"/>
</svg>
