<svg width="25" height="28" viewBox="0 0 25 28" fill="none" xmlns="http://www.w3.org/2000/svg">
<path d="M22.9672 19.5418C22.2883 19.1498 21.875 18.4207 21.875 17.6367V12.5781C21.875 8.08073 18.8588 4.28788 14.7391 3.11166C14.7565 2.98666 14.7654 2.8606 14.7656 2.73438C14.7656 1.22423 13.5414 0 12.0312 0C10.5211 0 9.29684 1.22423 9.29684 2.73438C9.29684 2.86245 9.30635 2.98829 9.32336 3.11166C5.20353 4.28788 2.18746 8.08073 2.18746 12.5781V17.6367C2.18746 18.4207 1.77408 19.1498 1.09519 19.5418C0.452064 19.9132 0.0155481 20.6024 0.000399652 21.3948C-0.0231707 22.6263 0.998994 23.625 2.23067 23.625H7.65621C7.65621 26.0413 9.61495 28 12.0312 28C14.4475 28 16.4062 26.0413 16.4062 23.625H21.8318C23.0635 23.625 24.0857 22.6263 24.0621 21.3948C24.0469 20.6024 23.6104 19.9131 22.9672 19.5418Z" fill="#97EA28"/>
<circle cx="19" cy="7" r="5" fill="#F24B16"/>
</svg>
