<svg width="91" height="67" viewBox="0 0 91 67" fill="none" xmlns="http://www.w3.org/2000/svg">
<mask id="mask0_55_3395" style="mask-type:alpha" maskUnits="userSpaceOnUse" x="0" y="24" width="53" height="21">
<path d="M38.6055 43.5096C43.7346 45.0666 46.6197 43.6928 47.2609 43.5096L52.8021 40.1208C50.375 39.9376 45.5118 39.1729 43.5972 37.9683C36.6821 33.6178 36.7441 23.3776 22.7145 25.0082C3.80102 27.2064 0.778522 37.373 0 44.6545C2.39663 43.3264 7.83102 41.0183 10.3956 40.5787C13.6012 40.0292 22.0734 42.6395 24.7753 42.7311C27.4773 42.8227 28.1184 41.632 30.5455 41.174C32.9727 40.7161 33.4765 41.9525 38.6055 43.5096Z" fill="#F24B16"/>
</mask>
<g mask="url(#mask0_55_3395)">
<path d="M38.6055 43.5096C43.7346 45.0666 46.6197 43.6928 47.2609 43.5096L52.8021 40.1208C50.375 39.9376 45.5118 39.1729 43.5972 37.9683C36.6821 33.6178 36.7441 23.3776 22.7145 25.0082C3.80102 27.2064 0.778522 37.373 0 44.6545C2.39663 43.3264 7.83102 41.0183 10.3956 40.5787C13.6012 40.0292 22.0734 42.6395 24.7753 42.7311C27.4773 42.8227 28.1184 41.632 30.5455 41.174C32.9727 40.7161 33.4765 41.9525 38.6055 43.5096Z" fill="#F24B16"/>
<path d="M19.1889 37.1901C18.502 37.4191 13.8309 40.7622 13.144 41.3117C11.6022 42.655 7.88664 45.6714 5.35873 46.9903C2.19884 48.639 -1.00684 47.1277 -1.00684 45.3417C-1.00684 43.5557 0.275436 33.8012 3.80168 30.4124C6.62268 27.7013 16.0596 25.3138 20.4254 24.459C17.9983 25.9244 13.2722 28.8096 13.7851 28.6264C14.4262 28.3974 20.3796 30.5498 19.1889 30.9162C18.2364 31.2092 15.1895 33.7555 13.7851 34.9919C15.8153 35.6483 19.7385 37.0069 19.1889 37.1901Z" fill="#97EA28"/>
</g>
<mask id="mask1_55_3395" style="mask-type:alpha" maskUnits="userSpaceOnUse" x="24" y="28" width="67" height="39">
<path d="M41.5824 55.5505C32.3971 56.8031 20.5621 50.1467 25.5997 47.0327C26.3324 46.2541 28.9886 45.7412 30.6372 45.7045C32.698 45.6587 40.4832 48.0401 41.1702 47.8569C41.8571 47.6737 50.604 39.2016 52.2984 38.0567C53.654 37.1408 59.3967 35.9959 62.0987 35.5379C59.9921 35.0342 55.3759 34.1091 53.7639 34.4389C51.7489 34.851 51.7489 36.866 51.2909 37.2324C50.833 37.5987 49.9171 37.2324 49.1386 37.2324C48.36 37.2324 48.2685 37.6903 47.2152 37.8735C46.3725 38.0201 46.1313 37.2629 46.1161 36.866C45.8718 36.7286 45.2826 36.3073 44.8796 35.7211C44.5994 35.3136 44.6867 34.8529 44.8428 34.5177C44.6085 34.758 44.3756 34.5064 44.5132 32.4696C44.7422 29.0807 54.405 28.577 57.7023 28.9434C60.3401 29.2365 65.0601 32.1796 67.0904 33.6145C67.9605 32.9734 70.122 31.7095 71.8073 31.7827C73.4926 31.856 74.2803 33.7061 74.4635 34.622L71.3035 37.553C72.2195 38.1483 74.6192 39.4947 76.8906 40.1175C79.7299 40.896 81.287 39.2016 82.3861 38.7436C83.4852 38.2857 82.6608 38.3315 83.1188 37.2324C83.5767 36.1333 84.63 35.8586 85.1796 35.4922C85.7291 35.1259 86.6908 35.8586 87.0114 35.8586C87.332 35.8586 88.3853 35.6296 88.8432 35.8586C89.3012 36.0876 89.9881 36.2249 89.9881 37.0035C89.9881 37.782 90.7666 37.2782 89.9881 41.125C89.2096 44.9719 79.8673 46.5747 76.8906 45.842C74.5093 45.2558 70.6166 41.9952 68.968 40.4381L63.7015 45.0177C65.6402 46.132 69.8747 48.5989 71.3035 49.5514C73.0896 50.7421 83.8973 62.8778 81.6533 65.3966C77.6582 69.8812 68.0062 58.7104 66.0829 54.9553C65.3012 53.4291 54.7714 48.3607 53.7639 48.3607C52.7564 48.3607 47.6273 54.7262 41.5824 55.5505Z" fill="#D9D9D9"/>
</mask>
<g mask="url(#mask1_55_3395)">
<path d="M41.5824 55.5505C32.3971 56.8031 20.5621 50.1467 25.5997 47.0327C26.3324 46.2541 28.9886 45.7412 30.6372 45.7045C32.698 45.6587 40.4832 48.0401 41.1702 47.8569C41.8571 47.6737 50.604 39.2016 52.2984 38.0567C53.654 37.1408 59.3967 35.9959 62.0987 35.5379C59.9921 35.0342 55.3759 34.1091 53.7639 34.4389C51.7489 34.851 51.7489 36.866 51.2909 37.2324C50.833 37.5987 49.9171 37.2324 49.1386 37.2324C48.36 37.2324 48.2685 37.6903 47.2152 37.8735C46.3725 38.0201 46.1313 37.2629 46.1161 36.866C45.8718 36.7286 45.2826 36.3073 44.8796 35.7211C44.5994 35.3136 44.6867 34.8529 44.8428 34.5177C44.6085 34.758 44.3756 34.5064 44.5132 32.4696C44.7422 29.0807 54.405 28.577 57.7023 28.9434C60.3401 29.2365 65.0601 32.1796 67.0904 33.6145C67.9605 32.9734 70.122 31.7095 71.8073 31.7827C73.4926 31.856 74.2803 33.7061 74.4635 34.622L71.3035 37.553C72.2195 38.1483 74.6192 39.4947 76.8906 40.1175C79.7299 40.896 81.287 39.2016 82.3861 38.7436C83.4852 38.2857 82.6608 38.3315 83.1188 37.2324C83.5767 36.1333 84.63 35.8586 85.1796 35.4922C85.7291 35.1259 86.6908 35.8586 87.0114 35.8586C87.332 35.8586 88.3853 35.6296 88.8432 35.8586C89.3012 36.0876 89.9881 36.2249 89.9881 37.0035C89.9881 37.782 90.7666 37.2782 89.9881 41.125C89.2096 44.9719 79.8673 46.5747 76.8906 45.842C74.5093 45.2558 70.6166 41.9952 68.968 40.4381L63.7015 45.0177C65.6402 46.132 69.8747 48.5989 71.3035 49.5514C73.0896 50.7421 83.8973 62.8778 81.6533 65.3966C77.6582 69.8812 68.0062 58.7104 66.0829 54.9553C65.3012 53.4291 54.7714 48.3607 53.7639 48.3607C52.7564 48.3607 47.6273 54.7262 41.5824 55.5505Z" fill="#F7F3E7"/>
<path fill-rule="evenodd" clip-rule="evenodd" d="M69.9752 46.3902C71.6697 46.1154 87.6068 61.2281 86.5993 65.1665C85.5919 69.1049 86.7361 73.6842 76.0202 69.4253C65.3044 65.1665 63.1065 63.8381 62.4196 61.1363C61.87 58.9747 61.9615 51.3823 64.1139 49.5962C66.2663 47.8103 68.6197 46.6101 69.9752 46.3902ZM27.7526 43.4595C30.3176 42.1042 40.0563 43.2613 44.6051 44.0093C43.8571 44.223 42.8738 45.5025 44.9254 48.9097C46.9771 52.3167 52.1305 53.5954 54.4508 53.8091C51.7794 55.4272 46.2076 58.7006 45.2917 58.8472C44.1449 59.0301 24.5474 56.2366 22.8522 50.7417C21.1578 45.2463 24.5469 45.1539 27.7526 43.4595ZM53.902 26.8355C57.0618 26.8813 60.3592 27.1559 61.2751 28.0718C62.1927 28.9878 72.8157 30.8193 73.9147 31.4146C75.0137 32.0105 76.1123 36.2234 75.0133 36.7271C74.1342 37.13 72.6935 37.5965 72.0827 37.7798C72.632 37.7799 72.8613 38.0549 75.0133 38.3296C77.1657 38.6044 79.6846 36.9563 82.8903 35.0786C86.0959 33.201 87.9276 34.1169 90.1715 34.6206C92.4155 35.1244 92.965 38.101 91.4538 42.4058C89.9425 46.7104 86.0953 45.8864 81.3327 48.5425C77.5226 50.6667 72.174 44.7414 69.7926 41.5816C69.0599 40.2688 67.0446 37.5052 67.9606 36.9556C68.8766 36.4061 71.5331 37.7798 72.0827 37.7798L71.8991 37.231C70.4642 36.1166 67.475 33.915 66.9987 34.0249C66.4032 34.1626 65.1671 35.0322 64.1598 35.2154C63.3538 35.3619 61.0758 35.5818 60.0377 35.6734C56.8481 36.5585 50.3699 38.3286 49.9635 38.3296C49.4598 38.3296 45.0633 39.4287 44.6969 38.3296C44.3305 37.2304 42.4989 31.6447 43.5973 30.7281C44.6964 29.8121 50.7421 26.7897 53.902 26.8355Z" fill="#383C47"/>
<path d="M46.8499 35.537C46.3003 35.9034 45.5218 35.766 45.018 35.308C45.018 35.2164 45.018 33.8883 45.6591 33.7052C46.3003 33.522 47.262 33.2472 47.8115 33.7968C48.3611 34.3463 47.3994 35.1706 46.8499 35.537Z" fill="#97EA28"/>
<path d="M47.1246 33.2014C46.6208 33.6136 44.789 33.6136 44.8348 32.9267C44.8806 32.2397 45.3477 31.6444 45.9339 31.4612C46.6666 31.2322 47.2162 31.507 47.491 31.965C47.7657 32.4229 47.6283 32.7893 47.1246 33.2014Z" fill="#97EA28"/>
<path d="M48.8191 34.9874C49.506 35.3996 49.4602 36.2697 49.1854 36.6361C48.9107 37.0024 47.2162 37.4146 46.8499 37.1398C46.4835 36.865 46.9873 35.7202 47.3536 35.308C47.6467 34.9783 48.1321 34.5753 48.8191 34.9874Z" fill="#97EA28"/>
<path d="M65.4423 41.5836L63.3357 43.5986L63.2441 43.736L65.6713 42.7285L66.5872 42.4995L67.5031 41.5836L68.8312 40.164L66.5872 40.7135L64.8012 39.248L65.4423 41.5836Z" fill="#171918"/>
<g opacity="0.4" style="mix-blend-mode:darken">
<path d="M80.8753 68.7389C83.8428 68.9221 86.3555 64.541 87.2408 62.3275C86.9356 60.7705 86.2334 57.1801 85.8671 55.275C85.5007 53.3699 72.0368 46.9097 65.3507 43.9178C63.5036 44.9711 59.608 47.1326 58.8019 47.3524C57.7943 47.6272 54.2681 48.3599 53.7644 48.4057C53.2606 48.4515 57.0159 53.3516 58.8019 54.6339C60.5879 55.9162 77.1658 68.5099 80.8753 68.7389Z" fill="#97EA28"/>
<path d="M41.5371 49.3216C39.7969 49.9628 28.8976 46.0244 28.0732 45.1542L41.0791 46.5282C43.5521 44.2689 48.8827 39.5032 50.4214 38.514C52.3448 37.2775 57.4739 36.041 57.7945 35.9494C58.115 35.8578 63.5189 35.3999 64.4806 34.7129C65.4423 34.0259 68.0527 32.8353 69.0602 31.8278C70.0676 30.8203 72.907 31.324 73.2733 31.8278C73.6397 32.3315 69.5181 34.3923 68.3732 34.7129C67.2283 35.0335 54.1766 39.155 51.6121 40.0709C49.0475 40.9869 43.2773 48.6805 41.5371 49.3216Z" fill="#97EA28"/>
</g>
<path d="M49.9648 29.3428C52.8173 28.8397 56.0531 28.8056 57.6973 28.9883C59.0066 29.1338 60.839 29.9388 62.6025 30.8906C64.3642 31.8414 66.0505 32.9348 67.0645 33.6514L67.0908 33.6699L67.1172 33.6504C67.5499 33.3315 68.3056 32.8572 69.1621 32.4717C70.0196 32.0858 70.9737 31.792 71.8057 31.8281C72.63 31.8641 73.2367 32.3338 73.6621 32.9131C74.0803 33.4825 74.3188 34.1536 74.4131 34.6064L71.2725 37.5195L71.2305 37.5596L71.2793 37.5908C72.1974 38.1876 74.6014 39.5367 76.8789 40.1611C79.7379 40.9449 81.325 39.2345 82.4033 38.7852C82.6777 38.6708 82.8397 38.5852 82.9307 38.502C82.9769 38.4595 83.0061 38.4163 83.0225 38.3691C83.0386 38.3222 83.0411 38.2742 83.0381 38.2256C83.0351 38.1784 83.0268 38.1236 83.0205 38.0674C83.014 38.0097 83.0087 37.9448 83.0107 37.8691C83.0149 37.7178 83.0477 37.52 83.1602 37.25C83.3845 36.7115 83.7552 36.3738 84.1396 36.125C84.3321 36.0005 84.5278 35.8981 84.7109 35.8037C84.8931 35.7098 85.0642 35.6225 85.2041 35.5293C85.33 35.4454 85.4824 35.4229 85.6484 35.4395C85.8147 35.4561 85.992 35.512 86.165 35.5801C86.3386 35.6484 86.5037 35.7272 86.6494 35.791C86.7214 35.8225 86.7887 35.8502 86.8486 35.8701C86.908 35.8899 86.9643 35.9033 87.0117 35.9033C87.0952 35.9033 87.2244 35.8888 87.374 35.8711C87.5251 35.8532 87.6999 35.8316 87.8789 35.8174C88.0582 35.8031 88.2411 35.7961 88.4062 35.8066C88.572 35.8172 88.7167 35.8452 88.8232 35.8984C88.9389 35.9562 89.0707 36.0092 89.1973 36.0654C89.3253 36.1223 89.4507 36.1842 89.5615 36.2617C89.6721 36.3391 89.7675 36.4321 89.835 36.5508C89.9021 36.6692 89.9434 36.8164 89.9434 37.0039C89.9434 37.208 89.9953 37.3297 90.0576 37.4551C90.1188 37.578 90.1891 37.7034 90.2363 37.9229C90.3315 38.3652 90.3335 39.1933 89.9443 41.1162C89.7531 42.061 89.0342 42.874 88.0068 43.5508C86.9804 44.2269 85.6515 44.763 84.252 45.1572C82.8525 45.5514 81.3838 45.803 80.0801 45.9102C78.7752 46.0173 77.6385 45.9793 76.9014 45.7979C75.7202 45.5071 74.1575 44.5508 72.6807 43.4678C71.2056 42.3861 69.8222 41.1827 68.999 40.4053L68.9688 40.377L68.9385 40.4043L63.6719 44.9834L63.624 45.0254L63.6787 45.0566C65.6179 46.1713 69.8509 48.6373 71.2783 49.5889C71.4977 49.7351 71.8593 50.0523 72.3213 50.5029C72.7826 50.9529 73.3418 51.5343 73.9561 52.2061C75.1846 53.5497 76.6327 55.2554 77.9541 57.0029C79.2757 58.7508 80.4697 60.5385 81.1934 62.0449C81.5553 62.7984 81.7985 63.4791 81.8818 64.0479C81.9652 64.617 81.8875 65.0658 81.6201 65.3662C80.6372 66.4695 79.3056 66.6145 77.8193 66.1426C76.3311 65.67 74.6949 64.5808 73.1201 63.2314C69.9709 60.5329 67.0815 56.8058 66.123 54.9346C66.0203 54.734 65.7628 54.4826 65.3984 54.1982C65.0319 53.9122 64.5502 53.5885 63.9932 53.2432C62.8789 52.5525 61.4569 51.7751 60.0283 51.0459C58.5996 50.3166 57.1635 49.6352 56.0215 49.1357C55.4508 48.8862 54.9534 48.6811 54.5664 48.5391C54.3731 48.4681 54.2064 48.4129 54.0723 48.375C53.9394 48.3375 53.8334 48.3154 53.7637 48.3154C53.6903 48.3155 53.6041 48.3448 53.5078 48.3926C53.4105 48.4409 53.298 48.5102 53.1729 48.5986C52.9226 48.7756 52.6152 49.0293 52.2568 49.334C51.539 49.9444 50.6151 50.7649 49.5342 51.6113C47.3718 53.3046 44.5861 55.0954 41.5762 55.5059C36.9949 56.1305 31.7497 54.7827 28.2793 52.8896C26.5431 51.9426 25.2581 50.8633 24.7197 49.833C24.4512 49.3191 24.3704 48.8199 24.5068 48.3564C24.6434 47.8929 24.9999 47.4566 25.623 47.0713L25.624 47.0723L25.6328 47.0635C25.8095 46.8758 26.1057 46.7003 26.4814 46.543C26.8563 46.3861 27.3059 46.2485 27.7852 46.1338C28.744 45.9044 29.8178 45.7682 30.6387 45.75C31.148 45.7388 32.0161 45.8778 33.0469 46.0918C34.0763 46.3055 35.2634 46.5926 36.4082 46.876C37.5526 47.1592 38.6555 47.4389 39.5146 47.6357C39.944 47.7341 40.3138 47.8117 40.5977 47.8594C40.7395 47.8832 40.8609 47.8997 40.958 47.9072C41.0533 47.9146 41.1307 47.914 41.1816 47.9004C41.2091 47.8931 41.2427 47.8764 41.2803 47.8545C41.3186 47.8321 41.3643 47.8022 41.416 47.7656C41.5194 47.6924 41.6504 47.5907 41.8047 47.4648C42.1136 47.2129 42.5188 46.8622 42.9902 46.4434C43.9336 45.6052 45.1447 44.4925 46.3867 43.3506C47.629 42.2085 48.9029 41.037 49.9717 40.0791C51.0414 39.1203 51.9027 38.3779 52.3232 38.0938C52.6561 37.8688 53.2638 37.6271 54.0352 37.3838C54.8049 37.141 55.7332 36.8978 56.7041 36.6689C58.6458 36.2113 60.7562 35.8109 62.1064 35.582L62.1094 35.4941C61.0552 35.2421 59.3732 34.8851 57.7529 34.6318C56.9428 34.5052 56.1472 34.4038 55.4531 34.3555C54.7601 34.3072 54.1642 34.3108 53.7549 34.3945C52.73 34.6042 52.2165 35.2231 51.9033 35.832C51.7474 36.1352 51.6402 36.4373 51.5449 36.6826C51.4971 36.8058 51.4527 36.9144 51.4062 37.0029C51.3595 37.0919 51.3127 37.1572 51.2627 37.1973C51.1571 37.2817 51.0233 37.3252 50.8662 37.3418C50.7088 37.3584 50.5305 37.348 50.3398 37.3252C49.9628 37.2801 49.5311 37.1875 49.1387 37.1875C48.738 37.1875 48.5121 37.3061 48.2588 37.4443C48.0081 37.5811 47.7263 37.7388 47.207 37.8291C47.0037 37.8644 46.8394 37.8449 46.707 37.792C46.5744 37.7389 46.4713 37.6508 46.3916 37.5459C46.2314 37.3349 46.1685 37.0567 46.1611 36.8643L46.1602 36.8389L46.1377 36.8271L45.9023 36.6748C45.6183 36.4734 45.2157 36.1298 44.917 35.6953C44.65 35.3069 44.7308 34.8657 44.8838 34.5371L44.8105 34.4863C44.7536 34.5447 44.7148 34.5538 44.6904 34.5439C44.6764 34.5382 44.6574 34.5231 44.6377 34.4893C44.6181 34.4556 44.599 34.4061 44.582 34.3369C44.5136 34.057 44.4898 33.4913 44.5586 32.4727C44.6142 31.6494 45.2427 30.9932 46.2275 30.4775C47.2111 29.9626 48.5385 29.5943 49.9648 29.3428Z" stroke="black" stroke-width="0.0900003"/>
</g>
<mask id="mask2_55_3395" style="mask-type:alpha" maskUnits="userSpaceOnUse" x="37" y="0" width="50" height="36">
<path d="M84.0268 33.1428C81.6821 35.6341 77.7071 35.8447 72.9901 35.5699C68.2731 35.2952 62.1367 30.5782 62.8236 24.0753C53.8324 22.9151 36.0882 19.0011 37.0408 12.6264C37.6306 8.67935 46.4289 8.35566 55.1077 10.2791C50.9301 9.02376 47.8482 3.7453 49.2223 1.72705C53.6188 -4.72997 72.8968 8.50101 80.9101 15.7119C85.4118 18.2311 87.0249 24.417 86.8203 25.6781C86.5455 27.3725 86.9577 30.0287 84.0268 33.1428Z" fill="#F7F3E7"/>
</mask>
<g mask="url(#mask2_55_3395)">
<path d="M84.0268 33.1428C81.6821 35.6341 77.7071 35.8447 72.9901 35.5699C68.2731 35.2952 62.1367 30.5782 62.8236 24.0753C53.8324 22.9151 36.0882 19.0011 37.0408 12.6264C37.6306 8.67935 46.4289 8.35566 55.1077 10.2791C50.9301 9.02376 47.8482 3.7453 49.2223 1.72705C53.6188 -4.72997 72.8968 8.50101 80.9101 15.7119C85.4118 18.2311 87.0249 24.417 86.8203 25.6781C86.5455 27.3725 86.9577 30.0287 84.0268 33.1428Z" fill="#F7F3E7"/>
<path d="M65.5239 27.0976C64.8828 31.9977 70.8362 34.4249 73.1718 36.1651C71.462 35.8903 67.6763 35.2766 66.2109 35.0202C64.3792 34.6996 50.9152 25.2658 49.2666 25.22C47.6179 25.1742 34.5204 20.732 32.5054 14.5497C30.4904 8.36728 40.4738 3.32976 41.1607 2.68863C41.8476 2.04749 50.3198 -0.654453 57.9218 -0.88343C65.5239 -1.11241 81.5523 15.7403 81.3691 15.7403C81.1859 15.7403 76.24 14.5497 76.0568 14.5497C75.8736 14.5497 68.2716 13.7253 68.0426 13.8169C67.8136 13.9085 68.7753 15.3282 69.0959 16.4731C69.4165 17.618 69.3707 20.6405 69.0959 20.732C68.8211 20.8236 66.1651 22.1975 65.5239 27.0976Z" fill="#97EA28"/>
<path d="M81.5066 30.7595C81.3234 30.9061 81.8882 31.3701 82.1935 31.5838C82.4989 31.3854 83.1003 30.9427 83.0637 30.7595C83.0179 30.5305 81.7356 30.5763 81.5066 30.7595Z" fill="#F24B16"/>
<path d="M81.2318 32.3166C81.012 32.28 80.1022 33.2783 79.6748 33.7821L81.5982 33.5073C81.5677 33.1257 81.4517 32.3533 81.2318 32.3166Z" fill="#F24B16"/>
<path d="M81.233 32.3174C81.4619 32.3632 81.5535 33.3706 81.5535 33.508C81.5077 33.2638 81.1414 32.4365 81.1414 32.3632C81.1414 32.2716 79.6758 33.737 79.63 33.7828C79.5842 33.8285 81.004 32.2716 81.233 32.3174Z" fill="#171918" stroke="#171918" stroke-width="0.0915909"/>
<path d="M78.4444 28.7644C78.5923 28.9602 78.7146 29.1415 78.8052 29.2956C78.683 29.1394 78.5648 28.9591 78.4444 28.7644C77.596 27.6413 75.9043 26.0381 74.5004 26.3188C72.4396 26.731 70.9283 28.1965 70.9283 28.6087C70.9283 28.9384 71.2642 29.7841 71.4321 30.1657C71.1115 29.7077 70.4795 28.7369 70.5162 28.5171C70.562 28.2423 72.4017 25.6151 74.9584 25.8609C76.9867 26.0559 77.7526 27.6463 78.4444 28.7644Z" fill="#171918"/>
<path d="M78.8052 29.2956C78.1946 28.2575 76.149 25.9891 74.5004 26.3188C72.4396 26.731 70.9283 28.1965 70.9283 28.6087C70.9283 28.9384 71.2642 29.7841 71.4321 30.1657C71.1115 29.7077 70.4795 28.7369 70.5162 28.5171C70.562 28.2423 72.4017 25.6151 74.9584 25.8609C77.3398 26.0899 77.9809 28.2423 78.8052 29.2956Z" stroke="#171918" stroke-width="0.0915909"/>
<path d="M85.5371 25.3115C84.1564 25.3115 83.7968 28.7462 83.8426 28.9294C84.1021 27.9524 84.7677 25.9527 85.3539 25.7695C85.9401 25.5864 86.514 26.3038 86.7277 26.6855C86.7277 26.3648 85.995 25.3115 85.5371 25.3115Z" fill="#171918" stroke="#171918" stroke-width="0.0915909"/>
<path d="M78.6681 29.1583C78.6681 29.1583 77.7188 31.2649 76.3783 31.2649C75.0378 31.2649 73.9512 29.8502 73.9512 28.105C73.9512 26.3599 75.1419 26.1816 75.5082 26.1816C75.5082 26.1816 77.8896 27.6471 78.6681 29.1583Z" fill="#171918"/>
<path d="M86.2243 27.7852C86.2243 29.1004 85.6502 30.1666 84.942 30.1666C84.2339 30.1666 83.7513 28.7011 83.9803 28.1058C84.3924 26.6403 84.5086 25.6328 85.2168 25.6328C85.5832 25.6328 86.2243 26.47 86.2243 27.7852Z" fill="#171918"/>
<ellipse cx="53.6172" cy="17.1985" rx="16.7611" ry="4.96386" transform="rotate(13.5037 53.6172 17.1985)" fill="#171918"/>
<path d="M50.2756 2.23C54.3808 -2.5233 70.4867 9.26723 77.1575 14.6864C75.7532 14.7169 73.3197 13.8314 68.9144 15.9228C68.838 15.8618 68.2822 15.6632 67.3663 15.2052C66.5308 14.7875 59.0836 11.3128 55.0842 10.0152C51.1915 8.68716 48.5354 4.24496 50.2756 2.23Z" fill="#171918"/>
<path d="M49.2598 1.75293C50.3432 0.161668 52.3482 -0.225336 54.8936 0.21875C57.4372 0.662563 60.5046 1.93458 63.6885 3.63477C70.0553 7.03471 76.8755 12.1427 80.8799 15.7461L80.8789 15.7471L80.8877 15.752C83.127 17.0051 84.6507 19.1723 85.5889 21.1865C86.0577 22.1931 86.3792 23.1605 86.5713 23.9541C86.7639 24.7501 86.825 25.3654 86.7754 25.6709C86.4989 27.3757 86.9116 30.0105 83.9932 33.1113C82.8298 34.3474 81.26 35.02 79.3896 35.3486C77.5189 35.6773 75.3506 35.6617 72.9932 35.5244C70.6474 35.3878 67.9441 34.1454 65.9131 32.126C63.8828 30.1071 62.5274 27.3149 62.8691 24.0801L62.874 24.0352L62.8291 24.0303C58.3353 23.4504 51.6554 22.1815 46.2188 20.2627C43.5 19.3031 41.0951 18.1824 39.4307 16.9053C37.7654 15.6274 36.8515 14.2016 37.0859 12.6328C37.2307 11.6651 37.879 10.9152 38.9141 10.3643C39.9499 9.81304 41.3692 9.46352 43.0449 9.29688C46.3967 8.96364 50.7612 9.36315 55.0977 10.3242L55.1211 10.2354C53.0453 9.61158 51.2378 7.98689 50.1211 6.26465C49.563 5.40391 49.1791 4.52074 49.0195 3.72949C48.8598 2.93737 48.9262 2.24311 49.2598 1.75293Z" stroke="black" stroke-width="0.0915909"/>
</g>
<path d="M76.7328 26.9287L76.4169 27.8535L75.5633 28.1957L76.4169 28.5379L76.7328 29.4627L77.0487 28.5379L77.9023 28.1957L77.0487 27.8535L76.7328 26.9287Z" fill="#F7F3E7"/>
<path d="M85.3423 26.4717L85.1254 27.1068L84.5391 27.3418L85.1254 27.5768L85.3423 28.2119L85.5593 27.5768L86.1455 27.3418L85.5593 27.1068L85.3423 26.4717Z" fill="#F7F3E7"/>
<path d="M57.5512 6.43446C57.6918 6.97866 59.7487 7.17479 61.2284 6.96025C62.7081 6.74572 62.4308 10.8815 63.5186 11.8582C65.047 13.2307 66.2797 9.71388 69.0088 11.543" stroke="url(#paint0_linear_55_3395)" stroke-width="0.55858" stroke-linecap="round" stroke-dasharray="0.73 0.73"/>
<path d="M70.2266 13.7069C70.3728 13.7479 70.5181 13.639 70.5196 13.4871L70.5384 11.6527L68.4603 13.2107L70.2266 13.7069Z" fill="#F24B16"/>
<path fill-rule="evenodd" clip-rule="evenodd" d="M54.6626 5.13006L54.6476 5.11909C54.5854 5.07029 54.4957 5.08115 54.4469 5.14324C54.3755 5.23415 54.3913 5.36565 54.4822 5.43702L54.9439 5.7995L54.9541 5.78646C54.9873 5.82343 55.0236 5.85856 55.064 5.89029L55.1465 5.95511C55.522 6.24994 56.0656 6.18452 56.3604 5.80901L57.3992 4.48596C57.435 4.44045 57.4263 4.37409 57.3797 4.33979C57.1512 4.17171 56.8315 4.20998 56.6485 4.4268L56.4599 4.64918C56.4342 4.67951 56.3891 4.68398 56.3578 4.65949L55.8171 4.23669C55.7952 4.21956 55.7717 4.20522 55.7479 4.19289L54.7639 3.42115C54.6472 3.32953 54.4783 3.34985 54.3867 3.46654C54.2952 3.58323 54.3155 3.75213 54.4321 3.8437L55.1371 4.39722L55.1354 4.3994C55.0432 4.35801 54.9311 4.3822 54.8659 4.46527C54.7975 4.55253 54.7998 4.67131 54.8617 4.75693C54.8587 4.7617 54.8565 4.76686 54.8536 4.77167C54.7764 4.73219 54.6809 4.74902 54.6253 4.8198C54.55 4.916 54.5669 5.05424 54.6626 5.13006Z" fill="#97EA28"/>
<path d="M61.4952 21.5671C60.7764 21.8512 59.239 22.6806 58.28 20.862C57.321 19.0433 56.0273 14.8595 54.0611 14.4407C51.2984 13.8522 50.4914 17.7909 44.677 15.5092" stroke="url(#paint1_linear_55_3395)" stroke-width="0.768083" stroke-linecap="round" stroke-dasharray="1 1"/>
<path d="M41.7844 12.9916C41.4877 13.0043 41.284 13.2953 41.3736 13.5784L42.4557 16.9988L45.3686 12.8382L41.7844 12.9916Z" fill="#F24B16"/>
<path fill-rule="evenodd" clip-rule="evenodd" d="M65.4703 20.4652C65.6197 20.3955 65.6846 20.2172 65.6149 20.0678C65.5452 19.9184 65.367 19.8535 65.2176 19.9232L64.3126 20.3452L64.3109 20.3415C64.3984 20.271 64.4309 20.1483 64.3815 20.0419C64.3292 19.9299 64.2099 19.8716 64.0936 19.8904C64.0907 19.8856 64.0871 19.8813 64.0841 19.8765C64.1621 19.8199 64.1913 19.7144 64.1491 19.6238C64.0938 19.5053 63.9572 19.4521 63.8371 19.4988L63.8446 19.4953C63.924 19.4581 63.9582 19.3637 63.9214 19.2842C63.8671 19.1678 63.7286 19.1174 63.6122 19.1717L63.0205 19.4469L63.0286 19.4644C62.9747 19.4787 62.9209 19.4971 62.8686 19.5215L62.7622 19.5711C62.2813 19.7954 62.0731 20.3677 62.2973 20.8485L63.0877 22.5433C63.1149 22.6015 63.1855 22.6256 63.2429 22.5966C63.5243 22.4545 63.6475 22.1185 63.5246 21.8282L63.3974 21.5294C63.3804 21.4888 63.3985 21.4415 63.4383 21.4227L64.1299 21.0987C64.1538 21.0875 64.1759 21.0741 64.1971 21.0597L65.4703 20.4652Z" fill="#97EA28"/>
<defs>
<linearGradient id="paint0_linear_55_3395" x1="67.2144" y1="12.6362" x2="58.9791" y2="4.52638" gradientUnits="userSpaceOnUse">
<stop stop-color="#F24B16"/>
<stop offset="1" stop-color="#97EA28"/>
</linearGradient>
<linearGradient id="paint1_linear_55_3395" x1="45.139" y1="16.3977" x2="62.4127" y2="19.45" gradientUnits="userSpaceOnUse">
<stop stop-color="#F24B16"/>
<stop offset="1" stop-color="#97EA28"/>
</linearGradient>
</defs>
</svg>
